<svg xmlns="http://www.w3.org/2000/svg" xmlns:xlink="http://www.w3.org/1999/xlink" class="httpgd" width="524.00" height="302.00" viewBox="0 0 524.00 302.00">
<defs>
  <style type='text/css'><![CDATA[
    .httpgd line, .httpgd polyline, .httpgd polygon, .httpgd path, .httpgd rect, .httpgd circle {
      fill: none;
      stroke: #000000;
      stroke-linecap: round;
      stroke-linejoin: round;
      stroke-miterlimit: 10.00;
    }
  ]]></style>
<clipPath id="c0"><rect x="0.00" y="0.00" width="524.00" height="302.00"/></clipPath>
<clipPath id="c1"><rect x="59.04" y="59.04" width="434.72" height="169.52"/></clipPath>
<clipPath id="c2"><rect x="0.00" y="0.00" width="524.00" height="302.00"/></clipPath>
<clipPath id="c3"><rect x="59.04" y="59.04" width="434.72" height="169.52"/></clipPath>
</defs>
<rect width="100%" height="100%" style="stroke: none;fill: #FFFFFF;"/>
<g clip-path="url(#c0)">
</g><g clip-path="url(#c1)">
<circle cx="75.19" cy="96.77" r="2.70" style="stroke-width: 0.75;stroke: none;fill: #4682B4;"/>
<circle cx="75.14" cy="98.30" r="2.70" style="stroke-width: 0.75;stroke: none;fill: #4682B4;"/>
<circle cx="75.15" cy="107.50" r="2.70" style="stroke-width: 0.75;stroke: none;fill: #4682B4;"/>
<circle cx="75.15" cy="85.89" r="2.70" style="stroke-width: 0.75;stroke: none;fill: #4682B4;"/>
<circle cx="75.25" cy="110.56" r="2.70" style="stroke-width: 0.75;stroke: none;fill: #4682B4;"/>
<circle cx="75.27" cy="122.58" r="2.70" style="stroke-width: 0.75;stroke: none;fill: #4682B4;"/>
<circle cx="75.19" cy="114.07" r="2.70" style="stroke-width: 0.75;stroke: none;fill: #4682B4;"/>
<circle cx="75.56" cy="145.23" r="2.70" style="stroke-width: 0.75;stroke: none;fill: #4682B4;"/>
<circle cx="75.15" cy="98.70" r="2.70" style="stroke-width: 0.75;stroke: none;fill: #4682B4;"/>
<circle cx="75.17" cy="97.15" r="2.70" style="stroke-width: 0.75;stroke: none;fill: #4682B4;"/>
<circle cx="75.16" cy="89.84" r="2.70" style="stroke-width: 0.75;stroke: none;fill: #4682B4;"/>
<circle cx="75.15" cy="100.07" r="2.70" style="stroke-width: 0.75;stroke: none;fill: #4682B4;"/>
<circle cx="75.19" cy="100.89" r="2.70" style="stroke-width: 0.75;stroke: none;fill: #4682B4;"/>
<circle cx="75.15" cy="66.92" r="2.70" style="stroke-width: 0.75;stroke: none;fill: #4682B4;"/>
<circle cx="75.20" cy="112.62" r="2.70" style="stroke-width: 0.75;stroke: none;fill: #4682B4;"/>
<circle cx="75.15" cy="83.73" r="2.70" style="stroke-width: 0.75;stroke: none;fill: #4682B4;"/>
<circle cx="75.14" cy="83.10" r="2.70" style="stroke-width: 0.75;stroke: none;fill: #4682B4;"/>
<circle cx="75.17" cy="100.01" r="2.70" style="stroke-width: 0.75;stroke: none;fill: #4682B4;"/>
<circle cx="75.15" cy="93.64" r="2.70" style="stroke-width: 0.75;stroke: none;fill: #4682B4;"/>
<circle cx="75.15" cy="97.54" r="2.70" style="stroke-width: 0.75;stroke: none;fill: #4682B4;"/>
<circle cx="75.16" cy="100.19" r="2.70" style="stroke-width: 0.75;stroke: none;fill: #4682B4;"/>
<circle cx="75.15" cy="91.29" r="2.70" style="stroke-width: 0.75;stroke: none;fill: #4682B4;"/>
<circle cx="75.18" cy="118.42" r="2.70" style="stroke-width: 0.75;stroke: none;fill: #4682B4;"/>
<circle cx="75.14" cy="69.56" r="2.70" style="stroke-width: 0.75;stroke: none;fill: #4682B4;"/>
<circle cx="75.24" cy="131.17" r="2.70" style="stroke-width: 0.75;stroke: none;fill: #4682B4;"/>
<circle cx="75.22" cy="118.02" r="2.70" style="stroke-width: 0.75;stroke: none;fill: #4682B4;"/>
<circle cx="75.17" cy="103.74" r="2.70" style="stroke-width: 0.75;stroke: none;fill: #4682B4;"/>
<circle cx="75.18" cy="95.48" r="2.70" style="stroke-width: 0.75;stroke: none;fill: #4682B4;"/>
<circle cx="75.24" cy="128.07" r="2.70" style="stroke-width: 0.75;stroke: none;fill: #4682B4;"/>
<circle cx="75.17" cy="101.97" r="2.70" style="stroke-width: 0.75;stroke: none;fill: #4682B4;"/>
<circle cx="75.41" cy="142.17" r="2.70" style="stroke-width: 0.75;stroke: none;fill: #4682B4;"/>
<circle cx="75.35" cy="136.72" r="2.70" style="stroke-width: 0.75;stroke: none;fill: #4682B4;"/>
<circle cx="75.14" cy="113.91" r="2.70" style="stroke-width: 0.75;stroke: none;fill: #4682B4;"/>
<circle cx="75.20" cy="108.32" r="2.70" style="stroke-width: 0.75;stroke: none;fill: #4682B4;"/>
<circle cx="75.21" cy="108.61" r="2.70" style="stroke-width: 0.75;stroke: none;fill: #4682B4;"/>
<circle cx="75.15" cy="86.84" r="2.70" style="stroke-width: 0.75;stroke: none;fill: #4682B4;"/>
<circle cx="75.17" cy="89.77" r="2.70" style="stroke-width: 0.75;stroke: none;fill: #4682B4;"/>
<circle cx="75.42" cy="140.25" r="2.70" style="stroke-width: 0.75;stroke: none;fill: #4682B4;"/>
<circle cx="75.17" cy="92.15" r="2.70" style="stroke-width: 0.75;stroke: none;fill: #4682B4;"/>
<circle cx="75.16" cy="96.70" r="2.70" style="stroke-width: 0.75;stroke: none;fill: #4682B4;"/>
<circle cx="75.16" cy="105.52" r="2.70" style="stroke-width: 0.75;stroke: none;fill: #4682B4;"/>
<circle cx="75.18" cy="91.84" r="2.70" style="stroke-width: 0.75;stroke: none;fill: #4682B4;"/>
<circle cx="75.15" cy="88.26" r="2.70" style="stroke-width: 0.75;stroke: none;fill: #4682B4;"/>
<circle cx="75.18" cy="103.04" r="2.70" style="stroke-width: 0.75;stroke: none;fill: #4682B4;"/>
<circle cx="75.14" cy="97.93" r="2.70" style="stroke-width: 0.75;stroke: none;fill: #4682B4;"/>
<circle cx="75.22" cy="126.29" r="2.70" style="stroke-width: 0.75;stroke: none;fill: #4682B4;"/>
<circle cx="75.14" cy="91.71" r="2.70" style="stroke-width: 0.75;stroke: none;fill: #4682B4;"/>
<circle cx="75.17" cy="104.52" r="2.70" style="stroke-width: 0.75;stroke: none;fill: #4682B4;"/>
<circle cx="75.14" cy="117.13" r="2.70" style="stroke-width: 0.75;stroke: none;fill: #4682B4;"/>
<circle cx="75.17" cy="120.09" r="2.70" style="stroke-width: 0.75;stroke: none;fill: #4682B4;"/>
<circle cx="75.14" cy="117.38" r="2.70" style="stroke-width: 0.75;stroke: none;fill: #4682B4;"/>
<circle cx="75.45" cy="136.79" r="2.70" style="stroke-width: 0.75;stroke: none;fill: #4682B4;"/>
<circle cx="75.17" cy="95.44" r="2.70" style="stroke-width: 0.75;stroke: none;fill: #4682B4;"/>
<circle cx="75.25" cy="125.58" r="2.70" style="stroke-width: 0.75;stroke: none;fill: #4682B4;"/>
<circle cx="75.16" cy="83.29" r="2.70" style="stroke-width: 0.75;stroke: none;fill: #4682B4;"/>
<circle cx="75.15" cy="71.23" r="2.70" style="stroke-width: 0.75;stroke: none;fill: #4682B4;"/>
<circle cx="75.17" cy="89.58" r="2.70" style="stroke-width: 0.75;stroke: none;fill: #4682B4;"/>
<circle cx="75.18" cy="108.49" r="2.70" style="stroke-width: 0.75;stroke: none;fill: #4682B4;"/>
<circle cx="75.15" cy="93.07" r="2.70" style="stroke-width: 0.75;stroke: none;fill: #4682B4;"/>
<circle cx="75.14" cy="100.30" r="2.70" style="stroke-width: 0.75;stroke: none;fill: #4682B4;"/>
<circle cx="75.22" cy="121.50" r="2.70" style="stroke-width: 0.75;stroke: none;fill: #4682B4;"/>
<circle cx="75.16" cy="101.02" r="2.70" style="stroke-width: 0.75;stroke: none;fill: #4682B4;"/>
<circle cx="75.16" cy="97.50" r="2.70" style="stroke-width: 0.75;stroke: none;fill: #4682B4;"/>
<circle cx="75.57" cy="150.87" r="2.70" style="stroke-width: 0.75;stroke: none;fill: #4682B4;"/>
<circle cx="75.19" cy="110.34" r="2.70" style="stroke-width: 0.75;stroke: none;fill: #4682B4;"/>
<circle cx="75.15" cy="84.61" r="2.70" style="stroke-width: 0.75;stroke: none;fill: #4682B4;"/>
<circle cx="75.14" cy="81.06" r="2.70" style="stroke-width: 0.75;stroke: none;fill: #4682B4;"/>
<circle cx="75.22" cy="123.36" r="2.70" style="stroke-width: 0.75;stroke: none;fill: #4682B4;"/>
<circle cx="75.15" cy="105.15" r="2.70" style="stroke-width: 0.75;stroke: none;fill: #4682B4;"/>
<circle cx="75.15" cy="96.36" r="2.70" style="stroke-width: 0.75;stroke: none;fill: #4682B4;"/>
<circle cx="75.16" cy="90.13" r="2.70" style="stroke-width: 0.75;stroke: none;fill: #4682B4;"/>
<circle cx="75.15" cy="77.65" r="2.70" style="stroke-width: 0.75;stroke: none;fill: #4682B4;"/>
<circle cx="75.15" cy="86.11" r="2.70" style="stroke-width: 0.75;stroke: none;fill: #4682B4;"/>
<circle cx="75.21" cy="116.43" r="2.70" style="stroke-width: 0.75;stroke: none;fill: #4682B4;"/>
<circle cx="75.15" cy="93.65" r="2.70" style="stroke-width: 0.75;stroke: none;fill: #4682B4;"/>
<circle cx="75.14" cy="78.90" r="2.70" style="stroke-width: 0.75;stroke: none;fill: #4682B4;"/>
<circle cx="75.23" cy="122.77" r="2.70" style="stroke-width: 0.75;stroke: none;fill: #4682B4;"/>
<circle cx="75.18" cy="115.84" r="2.70" style="stroke-width: 0.75;stroke: none;fill: #4682B4;"/>
<circle cx="75.14" cy="84.89" r="2.70" style="stroke-width: 0.75;stroke: none;fill: #4682B4;"/>
<circle cx="75.26" cy="129.76" r="2.70" style="stroke-width: 0.75;stroke: none;fill: #4682B4;"/>
<circle cx="75.27" cy="132.39" r="2.70" style="stroke-width: 0.75;stroke: none;fill: #4682B4;"/>
<circle cx="75.15" cy="92.31" r="2.70" style="stroke-width: 0.75;stroke: none;fill: #4682B4;"/>
<circle cx="75.17" cy="102.50" r="2.70" style="stroke-width: 0.75;stroke: none;fill: #4682B4;"/>
<circle cx="75.27" cy="121.37" r="2.70" style="stroke-width: 0.75;stroke: none;fill: #4682B4;"/>
<circle cx="77.91" cy="181.76" r="2.70" style="stroke-width: 0.75;stroke: none;fill: #4682B4;"/>
<circle cx="75.22" cy="117.82" r="2.70" style="stroke-width: 0.75;stroke: none;fill: #4682B4;"/>
<circle cx="75.18" cy="107.95" r="2.70" style="stroke-width: 0.75;stroke: none;fill: #4682B4;"/>
<circle cx="75.16" cy="103.63" r="2.70" style="stroke-width: 0.75;stroke: none;fill: #4682B4;"/>
<circle cx="75.15" cy="75.59" r="2.70" style="stroke-width: 0.75;stroke: none;fill: #4682B4;"/>
<circle cx="75.15" cy="93.50" r="2.70" style="stroke-width: 0.75;stroke: none;fill: #4682B4;"/>
<circle cx="75.24" cy="135.19" r="2.70" style="stroke-width: 0.75;stroke: none;fill: #4682B4;"/>
<circle cx="75.15" cy="100.36" r="2.70" style="stroke-width: 0.75;stroke: none;fill: #4682B4;"/>
<circle cx="75.17" cy="90.41" r="2.70" style="stroke-width: 0.75;stroke: none;fill: #4682B4;"/>
<circle cx="75.22" cy="119.01" r="2.70" style="stroke-width: 0.75;stroke: none;fill: #4682B4;"/>
<circle cx="75.16" cy="98.89" r="2.70" style="stroke-width: 0.75;stroke: none;fill: #4682B4;"/>
<circle cx="75.59" cy="151.69" r="2.70" style="stroke-width: 0.75;stroke: none;fill: #4682B4;"/>
<circle cx="75.15" cy="99.55" r="2.70" style="stroke-width: 0.75;stroke: none;fill: #4682B4;"/>
<circle cx="75.15" cy="80.37" r="2.70" style="stroke-width: 0.75;stroke: none;fill: #4682B4;"/>
<circle cx="75.22" cy="111.45" r="2.70" style="stroke-width: 0.75;stroke: none;fill: #4682B4;"/>
<circle cx="75.26" cy="117.15" r="2.70" style="stroke-width: 0.75;stroke: none;fill: #4682B4;"/>
<circle cx="75.18" cy="111.51" r="2.70" style="stroke-width: 0.75;stroke: none;fill: #4682B4;"/>
<circle cx="75.17" cy="97.46" r="2.70" style="stroke-width: 0.75;stroke: none;fill: #4682B4;"/>
<circle cx="75.18" cy="100.38" r="2.70" style="stroke-width: 0.75;stroke: none;fill: #4682B4;"/>
<circle cx="75.16" cy="82.15" r="2.70" style="stroke-width: 0.75;stroke: none;fill: #4682B4;"/>
<circle cx="75.15" cy="108.60" r="2.70" style="stroke-width: 0.75;stroke: none;fill: #4682B4;"/>
<circle cx="75.15" cy="106.15" r="2.70" style="stroke-width: 0.75;stroke: none;fill: #4682B4;"/>
<circle cx="75.16" cy="87.95" r="2.70" style="stroke-width: 0.75;stroke: none;fill: #4682B4;"/>
<circle cx="75.18" cy="108.09" r="2.70" style="stroke-width: 0.75;stroke: none;fill: #4682B4;"/>
<circle cx="75.16" cy="95.60" r="2.70" style="stroke-width: 0.75;stroke: none;fill: #4682B4;"/>
<circle cx="75.17" cy="105.19" r="2.70" style="stroke-width: 0.75;stroke: none;fill: #4682B4;"/>
<circle cx="75.17" cy="96.76" r="2.70" style="stroke-width: 0.75;stroke: none;fill: #4682B4;"/>
<circle cx="75.21" cy="118.50" r="2.70" style="stroke-width: 0.75;stroke: none;fill: #4682B4;"/>
<circle cx="75.15" cy="98.41" r="2.70" style="stroke-width: 0.75;stroke: none;fill: #4682B4;"/>
<circle cx="75.17" cy="91.55" r="2.70" style="stroke-width: 0.75;stroke: none;fill: #4682B4;"/>
<circle cx="75.15" cy="94.86" r="2.70" style="stroke-width: 0.75;stroke: none;fill: #4682B4;"/>
<circle cx="75.16" cy="118.20" r="2.70" style="stroke-width: 0.75;stroke: none;fill: #4682B4;"/>
<circle cx="75.60" cy="155.86" r="2.70" style="stroke-width: 0.75;stroke: none;fill: #4682B4;"/>
<circle cx="75.20" cy="116.63" r="2.70" style="stroke-width: 0.75;stroke: none;fill: #4682B4;"/>
<circle cx="75.16" cy="78.25" r="2.70" style="stroke-width: 0.75;stroke: none;fill: #4682B4;"/>
<circle cx="75.21" cy="126.74" r="2.70" style="stroke-width: 0.75;stroke: none;fill: #4682B4;"/>
<circle cx="75.16" cy="103.97" r="2.70" style="stroke-width: 0.75;stroke: none;fill: #4682B4;"/>
<circle cx="75.23" cy="129.08" r="2.70" style="stroke-width: 0.75;stroke: none;fill: #4682B4;"/>
<circle cx="75.16" cy="87.13" r="2.70" style="stroke-width: 0.75;stroke: none;fill: #4682B4;"/>
<circle cx="75.17" cy="110.07" r="2.70" style="stroke-width: 0.75;stroke: none;fill: #4682B4;"/>
<circle cx="75.21" cy="112.90" r="2.70" style="stroke-width: 0.75;stroke: none;fill: #4682B4;"/>
<circle cx="75.31" cy="137.11" r="2.70" style="stroke-width: 0.75;stroke: none;fill: #4682B4;"/>
<circle cx="75.20" cy="119.18" r="2.70" style="stroke-width: 0.75;stroke: none;fill: #4682B4;"/>
<circle cx="75.15" cy="86.49" r="2.70" style="stroke-width: 0.75;stroke: none;fill: #4682B4;"/>
<circle cx="75.28" cy="137.93" r="2.70" style="stroke-width: 0.75;stroke: none;fill: #4682B4;"/>
<circle cx="75.15" cy="88.47" r="2.70" style="stroke-width: 0.75;stroke: none;fill: #4682B4;"/>
<circle cx="75.29" cy="138.12" r="2.70" style="stroke-width: 0.75;stroke: none;fill: #4682B4;"/>
<circle cx="75.19" cy="108.50" r="2.70" style="stroke-width: 0.75;stroke: none;fill: #4682B4;"/>
<circle cx="77.22" cy="171.72" r="2.70" style="stroke-width: 0.75;stroke: none;fill: #4682B4;"/>
<circle cx="75.15" cy="91.34" r="2.70" style="stroke-width: 0.75;stroke: none;fill: #4682B4;"/>
<circle cx="75.19" cy="108.28" r="2.70" style="stroke-width: 0.75;stroke: none;fill: #4682B4;"/>
<circle cx="75.17" cy="98.17" r="2.70" style="stroke-width: 0.75;stroke: none;fill: #4682B4;"/>
<circle cx="75.17" cy="108.64" r="2.70" style="stroke-width: 0.75;stroke: none;fill: #4682B4;"/>
<circle cx="75.31" cy="132.75" r="2.70" style="stroke-width: 0.75;stroke: none;fill: #4682B4;"/>
<circle cx="75.16" cy="97.07" r="2.70" style="stroke-width: 0.75;stroke: none;fill: #4682B4;"/>
<circle cx="75.17" cy="102.00" r="2.70" style="stroke-width: 0.75;stroke: none;fill: #4682B4;"/>
<circle cx="75.31" cy="140.94" r="2.70" style="stroke-width: 0.75;stroke: none;fill: #4682B4;"/>
<circle cx="75.17" cy="93.33" r="2.70" style="stroke-width: 0.75;stroke: none;fill: #4682B4;"/>
<circle cx="75.23" cy="124.45" r="2.70" style="stroke-width: 0.75;stroke: none;fill: #4682B4;"/>
<circle cx="75.29" cy="131.82" r="2.70" style="stroke-width: 0.75;stroke: none;fill: #4682B4;"/>
<circle cx="75.17" cy="107.48" r="2.70" style="stroke-width: 0.75;stroke: none;fill: #4682B4;"/>
<circle cx="75.38" cy="137.14" r="2.70" style="stroke-width: 0.75;stroke: none;fill: #4682B4;"/>
<circle cx="75.19" cy="111.59" r="2.70" style="stroke-width: 0.75;stroke: none;fill: #4682B4;"/>
<circle cx="75.18" cy="108.55" r="2.70" style="stroke-width: 0.75;stroke: none;fill: #4682B4;"/>
<circle cx="75.15" cy="73.13" r="2.70" style="stroke-width: 0.75;stroke: none;fill: #4682B4;"/>
<circle cx="75.19" cy="114.23" r="2.70" style="stroke-width: 0.75;stroke: none;fill: #4682B4;"/>
<circle cx="75.34" cy="144.52" r="2.70" style="stroke-width: 0.75;stroke: none;fill: #4682B4;"/>
<circle cx="75.16" cy="76.80" r="2.70" style="stroke-width: 0.75;stroke: none;fill: #4682B4;"/>
<circle cx="75.23" cy="116.86" r="2.70" style="stroke-width: 0.75;stroke: none;fill: #4682B4;"/>
<circle cx="77.44" cy="174.51" r="2.70" style="stroke-width: 0.75;stroke: none;fill: #4682B4;"/>
<circle cx="75.20" cy="110.11" r="2.70" style="stroke-width: 0.75;stroke: none;fill: #4682B4;"/>
<circle cx="75.17" cy="110.24" r="2.70" style="stroke-width: 0.75;stroke: none;fill: #4682B4;"/>
<circle cx="75.15" cy="75.33" r="2.70" style="stroke-width: 0.75;stroke: none;fill: #4682B4;"/>
<circle cx="75.21" cy="110.30" r="2.70" style="stroke-width: 0.75;stroke: none;fill: #4682B4;"/>
<circle cx="75.17" cy="95.56" r="2.70" style="stroke-width: 0.75;stroke: none;fill: #4682B4;"/>
<circle cx="75.25" cy="122.80" r="2.70" style="stroke-width: 0.75;stroke: none;fill: #4682B4;"/>
<circle cx="75.21" cy="112.18" r="2.70" style="stroke-width: 0.75;stroke: none;fill: #4682B4;"/>
<circle cx="75.15" cy="98.83" r="2.70" style="stroke-width: 0.75;stroke: none;fill: #4682B4;"/>
<circle cx="75.17" cy="101.58" r="2.70" style="stroke-width: 0.75;stroke: none;fill: #4682B4;"/>
<circle cx="477.66" cy="222.28" r="2.70" style="stroke-width: 0.75;stroke: none;fill: #4682B4;"/>
<circle cx="75.18" cy="104.64" r="2.70" style="stroke-width: 0.75;stroke: none;fill: #4682B4;"/>
<circle cx="75.15" cy="65.32" r="2.70" style="stroke-width: 0.75;stroke: none;fill: #4682B4;"/>
<circle cx="75.48" cy="147.44" r="2.70" style="stroke-width: 0.75;stroke: none;fill: #4682B4;"/>
<circle cx="75.16" cy="107.06" r="2.70" style="stroke-width: 0.75;stroke: none;fill: #4682B4;"/>
<circle cx="75.15" cy="91.06" r="2.70" style="stroke-width: 0.75;stroke: none;fill: #4682B4;"/>
<circle cx="75.15" cy="107.64" r="2.70" style="stroke-width: 0.75;stroke: none;fill: #4682B4;"/>
</g><g clip-path="url(#c2)">
<line x1="75.14" y1="228.56" x2="434.52" y2="228.56" style="stroke-width: 0.75;"/>
<line x1="75.14" y1="228.56" x2="75.14" y2="235.76" style="stroke-width: 0.75;"/>
<line x1="147.01" y1="228.56" x2="147.01" y2="235.76" style="stroke-width: 0.75;"/>
<line x1="218.89" y1="228.56" x2="218.89" y2="235.76" style="stroke-width: 0.75;"/>
<line x1="290.77" y1="228.56" x2="290.77" y2="235.76" style="stroke-width: 0.75;"/>
<line x1="362.65" y1="228.56" x2="362.65" y2="235.76" style="stroke-width: 0.75;"/>
<line x1="434.52" y1="228.56" x2="434.52" y2="235.76" style="stroke-width: 0.75;"/>
<g><text x="75.14" y="254.48" text-anchor="middle" style="font-family: Arial;font-size: 12.00px;" textLength="33.70px" lengthAdjust="spacingAndGlyphs">0e+00</text></g>
<g><text x="147.01" y="254.48" text-anchor="middle" style="font-family: Arial;font-size: 12.00px;" textLength="33.70px" lengthAdjust="spacingAndGlyphs">2e+04</text></g>
<g><text x="218.89" y="254.48" text-anchor="middle" style="font-family: Arial;font-size: 12.00px;" textLength="33.70px" lengthAdjust="spacingAndGlyphs">4e+04</text></g>
<g><text x="290.77" y="254.48" text-anchor="middle" style="font-family: Arial;font-size: 12.00px;" textLength="33.70px" lengthAdjust="spacingAndGlyphs">6e+04</text></g>
<g><text x="362.65" y="254.48" text-anchor="middle" style="font-family: Arial;font-size: 12.00px;" textLength="33.70px" lengthAdjust="spacingAndGlyphs">8e+04</text></g>
<g><text x="434.52" y="254.48" text-anchor="middle" style="font-family: Arial;font-size: 12.00px;" textLength="33.70px" lengthAdjust="spacingAndGlyphs">1e+05</text></g>
<line x1="59.04" y1="200.34" x2="59.04" y2="69.68" style="stroke-width: 0.75;"/>
<line x1="59.04" y1="200.34" x2="51.84" y2="200.34" style="stroke-width: 0.75;"/>
<line x1="59.04" y1="156.79" x2="51.84" y2="156.79" style="stroke-width: 0.75;"/>
<line x1="59.04" y1="113.23" x2="51.84" y2="113.23" style="stroke-width: 0.75;"/>
<line x1="59.04" y1="69.68" x2="51.84" y2="69.68" style="stroke-width: 0.75;"/>
<g><text transform="translate(41.76,200.34) rotate(-90.00)" text-anchor="middle" style="font-family: Arial;font-size: 12.00px;" textLength="10.67px" lengthAdjust="spacingAndGlyphs">-4</text></g>
<g><text transform="translate(41.76,156.79) rotate(-90.00)" text-anchor="middle" style="font-family: Arial;font-size: 12.00px;" textLength="10.67px" lengthAdjust="spacingAndGlyphs">-2</text></g>
<g><text transform="translate(41.76,113.23) rotate(-90.00)" text-anchor="middle" style="font-family: Arial;font-size: 12.00px;" textLength="6.67px" lengthAdjust="spacingAndGlyphs">0</text></g>
<g><text transform="translate(41.76,69.68) rotate(-90.00)" text-anchor="middle" style="font-family: Arial;font-size: 12.00px;" textLength="6.67px" lengthAdjust="spacingAndGlyphs">2</text></g>
<polygon points="59.04,228.56 493.76,228.56 493.76,59.04 59.04,59.04" style="stroke-width: 0.75;" />
<g><text x="276.40" y="34.70" text-anchor="middle" style="font-family: Arial;font-size: 14.40px;font-weight: bold;" textLength="124.77px" lengthAdjust="spacingAndGlyphs">Negative Binomial</text></g>
<g><text x="276.40" y="283.28" text-anchor="middle" style="font-family: Arial;font-size: 12.00px;" textLength="80.69px" lengthAdjust="spacingAndGlyphs">Predicted Time</text></g>
<g><text transform="translate(12.96,143.80) rotate(-90.00)" text-anchor="middle" style="font-family: Arial;font-size: 12.00px;" textLength="126.74px" lengthAdjust="spacingAndGlyphs">Standardized Residuals</text></g>
</g><g clip-path="url(#c3)">
<line x1="59.04" y1="113.23" x2="493.76" y2="113.23" style="stroke-width: 0.75;"/>
</g>
</svg>