<svg xmlns="http://www.w3.org/2000/svg" xmlns:xlink="http://www.w3.org/1999/xlink" class="httpgd" width="524.00" height="302.00" viewBox="0 0 524.00 302.00">
<defs>
  <style type='text/css'><![CDATA[
    .httpgd line, .httpgd polyline, .httpgd polygon, .httpgd path, .httpgd rect, .httpgd circle {
      fill: none;
      stroke: #000000;
      stroke-linecap: round;
      stroke-linejoin: round;
      stroke-miterlimit: 10.00;
    }
  ]]></style>
<clipPath id="c0"><rect x="0.00" y="0.00" width="524.00" height="302.00"/></clipPath>
<clipPath id="c1"><rect x="59.04" y="59.04" width="434.72" height="169.52"/></clipPath>
<clipPath id="c2"><rect x="0.00" y="0.00" width="524.00" height="302.00"/></clipPath>
<clipPath id="c3"><rect x="59.04" y="59.04" width="434.72" height="169.52"/></clipPath>
</defs>
<rect width="100%" height="100%" style="stroke: none;fill: #FFFFFF;"/>
<g clip-path="url(#c0)">
</g><g clip-path="url(#c1)">
<circle cx="84.25" cy="89.39" r="2.70" style="stroke-width: 0.75;stroke: none;fill: #4682B4;"/>
<circle cx="76.77" cy="127.88" r="2.70" style="stroke-width: 0.75;stroke: none;fill: #4682B4;"/>
<circle cx="79.51" cy="127.64" r="2.70" style="stroke-width: 0.75;stroke: none;fill: #4682B4;"/>
<circle cx="82.23" cy="117.96" r="2.70" style="stroke-width: 0.75;stroke: none;fill: #4682B4;"/>
<circle cx="94.59" cy="91.78" r="2.70" style="stroke-width: 0.75;stroke: none;fill: #4682B4;"/>
<circle cx="95.53" cy="105.26" r="2.70" style="stroke-width: 0.75;stroke: none;fill: #4682B4;"/>
<circle cx="93.76" cy="128.49" r="2.70" style="stroke-width: 0.75;stroke: none;fill: #4682B4;"/>
<circle cx="110.88" cy="115.00" r="2.70" style="stroke-width: 0.75;stroke: none;fill: #4682B4;"/>
<circle cx="77.58" cy="121.68" r="2.70" style="stroke-width: 0.75;stroke: none;fill: #4682B4;"/>
<circle cx="77.80" cy="89.71" r="2.70" style="stroke-width: 0.75;stroke: none;fill: #4682B4;"/>
<circle cx="80.04" cy="106.31" r="2.70" style="stroke-width: 0.75;stroke: none;fill: #4682B4;"/>
<circle cx="76.67" cy="113.95" r="2.70" style="stroke-width: 0.75;stroke: none;fill: #4682B4;"/>
<circle cx="81.00" cy="89.01" r="2.70" style="stroke-width: 0.75;stroke: none;fill: #4682B4;"/>
<circle cx="76.95" cy="100.79" r="2.70" style="stroke-width: 0.75;stroke: none;fill: #4682B4;"/>
<circle cx="97.66" cy="123.29" r="2.70" style="stroke-width: 0.75;stroke: none;fill: #4682B4;"/>
<circle cx="77.40" cy="96.59" r="2.70" style="stroke-width: 0.75;stroke: none;fill: #4682B4;"/>
<circle cx="75.49" cy="116.93" r="2.70" style="stroke-width: 0.75;stroke: none;fill: #4682B4;"/>
<circle cx="89.13" cy="116.70" r="2.70" style="stroke-width: 0.75;stroke: none;fill: #4682B4;"/>
<circle cx="79.08" cy="112.31" r="2.70" style="stroke-width: 0.75;stroke: none;fill: #4682B4;"/>
<circle cx="76.53" cy="117.53" r="2.70" style="stroke-width: 0.75;stroke: none;fill: #4682B4;"/>
<circle cx="78.18" cy="112.56" r="2.70" style="stroke-width: 0.75;stroke: none;fill: #4682B4;"/>
<circle cx="77.20" cy="112.37" r="2.70" style="stroke-width: 0.75;stroke: none;fill: #4682B4;"/>
<circle cx="79.50" cy="110.52" r="2.70" style="stroke-width: 0.75;stroke: none;fill: #4682B4;"/>
<circle cx="75.14" cy="105.33" r="2.70" style="stroke-width: 0.75;stroke: none;fill: #4682B4;"/>
<circle cx="104.00" cy="139.04" r="2.70" style="stroke-width: 0.75;stroke: none;fill: #4682B4;"/>
<circle cx="83.20" cy="97.52" r="2.70" style="stroke-width: 0.75;stroke: none;fill: #4682B4;"/>
<circle cx="88.49" cy="120.21" r="2.70" style="stroke-width: 0.75;stroke: none;fill: #4682B4;"/>
<circle cx="83.76" cy="96.69" r="2.70" style="stroke-width: 0.75;stroke: none;fill: #4682B4;"/>
<circle cx="78.63" cy="87.92" r="2.70" style="stroke-width: 0.75;stroke: none;fill: #4682B4;"/>
<circle cx="82.12" cy="104.23" r="2.70" style="stroke-width: 0.75;stroke: none;fill: #4682B4;"/>
<circle cx="149.65" cy="159.14" r="2.70" style="stroke-width: 0.75;stroke: none;fill: #4682B4;"/>
<circle cx="146.12" cy="156.80" r="2.70" style="stroke-width: 0.75;stroke: none;fill: #4682B4;"/>
<circle cx="75.32" cy="134.42" r="2.70" style="stroke-width: 0.75;stroke: none;fill: #4682B4;"/>
<circle cx="89.98" cy="109.57" r="2.70" style="stroke-width: 0.75;stroke: none;fill: #4682B4;"/>
<circle cx="95.08" cy="111.91" r="2.70" style="stroke-width: 0.75;stroke: none;fill: #4682B4;"/>
<circle cx="76.73" cy="96.46" r="2.70" style="stroke-width: 0.75;stroke: none;fill: #4682B4;"/>
<circle cx="76.50" cy="69.49" r="2.70" style="stroke-width: 0.75;stroke: none;fill: #4682B4;"/>
<circle cx="146.93" cy="152.93" r="2.70" style="stroke-width: 0.75;stroke: none;fill: #4682B4;"/>
<circle cx="79.77" cy="87.26" r="2.70" style="stroke-width: 0.75;stroke: none;fill: #4682B4;"/>
<circle cx="80.83" cy="105.89" r="2.70" style="stroke-width: 0.75;stroke: none;fill: #4682B4;"/>
<circle cx="77.15" cy="101.73" r="2.70" style="stroke-width: 0.75;stroke: none;fill: #4682B4;"/>
<circle cx="95.26" cy="114.08" r="2.70" style="stroke-width: 0.75;stroke: none;fill: #4682B4;"/>
<circle cx="76.97" cy="115.28" r="2.70" style="stroke-width: 0.75;stroke: none;fill: #4682B4;"/>
<circle cx="82.57" cy="105.41" r="2.70" style="stroke-width: 0.75;stroke: none;fill: #4682B4;"/>
<circle cx="75.58" cy="122.65" r="2.70" style="stroke-width: 0.75;stroke: none;fill: #4682B4;"/>
<circle cx="105.01" cy="140.13" r="2.70" style="stroke-width: 0.75;stroke: none;fill: #4682B4;"/>
<circle cx="75.48" cy="116.85" r="2.70" style="stroke-width: 0.75;stroke: none;fill: #4682B4;"/>
<circle cx="98.94" cy="135.30" r="2.70" style="stroke-width: 0.75;stroke: none;fill: #4682B4;"/>
<circle cx="75.56" cy="135.46" r="2.70" style="stroke-width: 0.75;stroke: none;fill: #4682B4;"/>
<circle cx="91.20" cy="142.68" r="2.70" style="stroke-width: 0.75;stroke: none;fill: #4682B4;"/>
<circle cx="75.46" cy="135.01" r="2.70" style="stroke-width: 0.75;stroke: none;fill: #4682B4;"/>
<circle cx="101.08" cy="98.36" r="2.70" style="stroke-width: 0.75;stroke: none;fill: #4682B4;"/>
<circle cx="80.09" cy="95.78" r="2.70" style="stroke-width: 0.75;stroke: none;fill: #4682B4;"/>
<circle cx="103.96" cy="129.16" r="2.70" style="stroke-width: 0.75;stroke: none;fill: #4682B4;"/>
<circle cx="77.15" cy="83.86" r="2.70" style="stroke-width: 0.75;stroke: none;fill: #4682B4;"/>
<circle cx="77.05" cy="104.61" r="2.70" style="stroke-width: 0.75;stroke: none;fill: #4682B4;"/>
<circle cx="76.26" cy="65.32" r="2.70" style="stroke-width: 0.75;stroke: none;fill: #4682B4;"/>
<circle cx="87.97" cy="121.69" r="2.70" style="stroke-width: 0.75;stroke: none;fill: #4682B4;"/>
<circle cx="77.96" cy="122.99" r="2.70" style="stroke-width: 0.75;stroke: none;fill: #4682B4;"/>
<circle cx="76.09" cy="125.08" r="2.70" style="stroke-width: 0.75;stroke: none;fill: #4682B4;"/>
<circle cx="93.10" cy="118.83" r="2.70" style="stroke-width: 0.75;stroke: none;fill: #4682B4;"/>
<circle cx="79.96" cy="108.94" r="2.70" style="stroke-width: 0.75;stroke: none;fill: #4682B4;"/>
<circle cx="80.15" cy="112.48" r="2.70" style="stroke-width: 0.75;stroke: none;fill: #4682B4;"/>
<circle cx="85.40" cy="88.19" r="2.70" style="stroke-width: 0.75;stroke: none;fill: #4682B4;"/>
<circle cx="82.86" cy="106.13" r="2.70" style="stroke-width: 0.75;stroke: none;fill: #4682B4;"/>
<circle cx="76.61" cy="109.78" r="2.70" style="stroke-width: 0.75;stroke: none;fill: #4682B4;"/>
<circle cx="77.39" cy="121.00" r="2.70" style="stroke-width: 0.75;stroke: none;fill: #4682B4;"/>
<circle cx="92.65" cy="122.42" r="2.70" style="stroke-width: 0.75;stroke: none;fill: #4682B4;"/>
<circle cx="80.27" cy="125.92" r="2.70" style="stroke-width: 0.75;stroke: none;fill: #4682B4;"/>
<circle cx="76.99" cy="115.36" r="2.70" style="stroke-width: 0.75;stroke: none;fill: #4682B4;"/>
<circle cx="80.40" cy="104.63" r="2.70" style="stroke-width: 0.75;stroke: none;fill: #4682B4;"/>
<circle cx="77.77" cy="109.33" r="2.70" style="stroke-width: 0.75;stroke: none;fill: #4682B4;"/>
<circle cx="77.52" cy="111.84" r="2.70" style="stroke-width: 0.75;stroke: none;fill: #4682B4;"/>
<circle cx="83.47" cy="98.20" r="2.70" style="stroke-width: 0.75;stroke: none;fill: #4682B4;"/>
<circle cx="81.71" cy="122.77" r="2.70" style="stroke-width: 0.75;stroke: none;fill: #4682B4;"/>
<circle cx="76.13" cy="111.37" r="2.70" style="stroke-width: 0.75;stroke: none;fill: #4682B4;"/>
<circle cx="95.28" cy="122.04" r="2.70" style="stroke-width: 0.75;stroke: none;fill: #4682B4;"/>
<circle cx="77.52" cy="103.37" r="2.70" style="stroke-width: 0.75;stroke: none;fill: #4682B4;"/>
<circle cx="75.77" cy="116.09" r="2.70" style="stroke-width: 0.75;stroke: none;fill: #4682B4;"/>
<circle cx="104.96" cy="132.17" r="2.70" style="stroke-width: 0.75;stroke: none;fill: #4682B4;"/>
<circle cx="109.15" cy="138.54" r="2.70" style="stroke-width: 0.75;stroke: none;fill: #4682B4;"/>
<circle cx="78.53" cy="113.77" r="2.70" style="stroke-width: 0.75;stroke: none;fill: #4682B4;"/>
<circle cx="87.59" cy="116.22" r="2.70" style="stroke-width: 0.75;stroke: none;fill: #4682B4;"/>
<circle cx="89.18" cy="94.37" r="2.70" style="stroke-width: 0.75;stroke: none;fill: #4682B4;"/>
<circle cx="149.19" cy="158.84" r="2.70" style="stroke-width: 0.75;stroke: none;fill: #4682B4;"/>
<circle cx="96.97" cy="122.37" r="2.70" style="stroke-width: 0.75;stroke: none;fill: #4682B4;"/>
<circle cx="93.44" cy="130.33" r="2.70" style="stroke-width: 0.75;stroke: none;fill: #4682B4;"/>
<circle cx="78.10" cy="108.91" r="2.70" style="stroke-width: 0.75;stroke: none;fill: #4682B4;"/>
<circle cx="77.23" cy="108.90" r="2.70" style="stroke-width: 0.75;stroke: none;fill: #4682B4;"/>
<circle cx="77.29" cy="109.13" r="2.70" style="stroke-width: 0.75;stroke: none;fill: #4682B4;"/>
<circle cx="92.56" cy="130.25" r="2.70" style="stroke-width: 0.75;stroke: none;fill: #4682B4;"/>
<circle cx="79.21" cy="119.43" r="2.70" style="stroke-width: 0.75;stroke: none;fill: #4682B4;"/>
<circle cx="81.78" cy="93.66" r="2.70" style="stroke-width: 0.75;stroke: none;fill: #4682B4;"/>
<circle cx="86.06" cy="106.35" r="2.70" style="stroke-width: 0.75;stroke: none;fill: #4682B4;"/>
<circle cx="77.80" cy="99.85" r="2.70" style="stroke-width: 0.75;stroke: none;fill: #4682B4;"/>
<circle cx="102.83" cy="117.01" r="2.70" style="stroke-width: 0.75;stroke: none;fill: #4682B4;"/>
<circle cx="82.25" cy="127.23" r="2.70" style="stroke-width: 0.75;stroke: none;fill: #4682B4;"/>
<circle cx="77.57" cy="108.53" r="2.70" style="stroke-width: 0.75;stroke: none;fill: #4682B4;"/>
<circle cx="80.42" cy="78.15" r="2.70" style="stroke-width: 0.75;stroke: none;fill: #4682B4;"/>
<circle cx="105.79" cy="113.91" r="2.70" style="stroke-width: 0.75;stroke: none;fill: #4682B4;"/>
<circle cx="92.07" cy="128.34" r="2.70" style="stroke-width: 0.75;stroke: none;fill: #4682B4;"/>
<circle cx="81.38" cy="104.79" r="2.70" style="stroke-width: 0.75;stroke: none;fill: #4682B4;"/>
<circle cx="81.98" cy="91.94" r="2.70" style="stroke-width: 0.75;stroke: none;fill: #4682B4;"/>
<circle cx="78.43" cy="82.05" r="2.70" style="stroke-width: 0.75;stroke: none;fill: #4682B4;"/>
<circle cx="77.55" cy="128.16" r="2.70" style="stroke-width: 0.75;stroke: none;fill: #4682B4;"/>
<circle cx="77.50" cy="128.01" r="2.70" style="stroke-width: 0.75;stroke: none;fill: #4682B4;"/>
<circle cx="78.69" cy="98.94" r="2.70" style="stroke-width: 0.75;stroke: none;fill: #4682B4;"/>
<circle cx="82.39" cy="104.94" r="2.70" style="stroke-width: 0.75;stroke: none;fill: #4682B4;"/>
<circle cx="82.05" cy="109.22" r="2.70" style="stroke-width: 0.75;stroke: none;fill: #4682B4;"/>
<circle cx="88.85" cy="126.94" r="2.70" style="stroke-width: 0.75;stroke: none;fill: #4682B4;"/>
<circle cx="79.67" cy="96.94" r="2.70" style="stroke-width: 0.75;stroke: none;fill: #4682B4;"/>
<circle cx="80.92" cy="95.89" r="2.70" style="stroke-width: 0.75;stroke: none;fill: #4682B4;"/>
<circle cx="76.59" cy="122.25" r="2.70" style="stroke-width: 0.75;stroke: none;fill: #4682B4;"/>
<circle cx="85.41" cy="102.74" r="2.70" style="stroke-width: 0.75;stroke: none;fill: #4682B4;"/>
<circle cx="76.51" cy="117.41" r="2.70" style="stroke-width: 0.75;stroke: none;fill: #4682B4;"/>
<circle cx="82.50" cy="131.12" r="2.70" style="stroke-width: 0.75;stroke: none;fill: #4682B4;"/>
<circle cx="151.07" cy="166.17" r="2.70" style="stroke-width: 0.75;stroke: none;fill: #4682B4;"/>
<circle cx="86.85" cy="116.01" r="2.70" style="stroke-width: 0.75;stroke: none;fill: #4682B4;"/>
<circle cx="79.93" cy="87.84" r="2.70" style="stroke-width: 0.75;stroke: none;fill: #4682B4;"/>
<circle cx="89.07" cy="127.31" r="2.70" style="stroke-width: 0.75;stroke: none;fill: #4682B4;"/>
<circle cx="78.48" cy="113.61" r="2.70" style="stroke-width: 0.75;stroke: none;fill: #4682B4;"/>
<circle cx="84.39" cy="110.96" r="2.70" style="stroke-width: 0.75;stroke: none;fill: #4682B4;"/>
<circle cx="82.18" cy="113.59" r="2.70" style="stroke-width: 0.75;stroke: none;fill: #4682B4;"/>
<circle cx="88.73" cy="133.33" r="2.70" style="stroke-width: 0.75;stroke: none;fill: #4682B4;"/>
<circle cx="103.90" cy="129.09" r="2.70" style="stroke-width: 0.75;stroke: none;fill: #4682B4;"/>
<circle cx="86.75" cy="105.57" r="2.70" style="stroke-width: 0.75;stroke: none;fill: #4682B4;"/>
<circle cx="84.15" cy="109.19" r="2.70" style="stroke-width: 0.75;stroke: none;fill: #4682B4;"/>
<circle cx="78.21" cy="110.99" r="2.70" style="stroke-width: 0.75;stroke: none;fill: #4682B4;"/>
<circle cx="125.91" cy="158.02" r="2.70" style="stroke-width: 0.75;stroke: none;fill: #4682B4;"/>
<circle cx="77.67" cy="116.09" r="2.70" style="stroke-width: 0.75;stroke: none;fill: #4682B4;"/>
<circle cx="108.93" cy="141.20" r="2.70" style="stroke-width: 0.75;stroke: none;fill: #4682B4;"/>
<circle cx="81.46" cy="99.95" r="2.70" style="stroke-width: 0.75;stroke: none;fill: #4682B4;"/>
<circle cx="182.86" cy="161.49" r="2.70" style="stroke-width: 0.75;stroke: none;fill: #4682B4;"/>
<circle cx="76.10" cy="111.24" r="2.70" style="stroke-width: 0.75;stroke: none;fill: #4682B4;"/>
<circle cx="76.67" cy="73.17" r="2.70" style="stroke-width: 0.75;stroke: none;fill: #4682B4;"/>
<circle cx="79.07" cy="100.29" r="2.70" style="stroke-width: 0.75;stroke: none;fill: #4682B4;"/>
<circle cx="79.73" cy="108.25" r="2.70" style="stroke-width: 0.75;stroke: none;fill: #4682B4;"/>
<circle cx="105.84" cy="124.06" r="2.70" style="stroke-width: 0.75;stroke: none;fill: #4682B4;"/>
<circle cx="86.95" cy="119.84" r="2.70" style="stroke-width: 0.75;stroke: none;fill: #4682B4;"/>
<circle cx="96.39" cy="136.64" r="2.70" style="stroke-width: 0.75;stroke: none;fill: #4682B4;"/>
<circle cx="166.94" cy="182.66" r="2.70" style="stroke-width: 0.75;stroke: none;fill: #4682B4;"/>
<circle cx="89.95" cy="113.73" r="2.70" style="stroke-width: 0.75;stroke: none;fill: #4682B4;"/>
<circle cx="97.09" cy="127.62" r="2.70" style="stroke-width: 0.75;stroke: none;fill: #4682B4;"/>
<circle cx="106.95" cy="128.85" r="2.70" style="stroke-width: 0.75;stroke: none;fill: #4682B4;"/>
<circle cx="80.16" cy="111.00" r="2.70" style="stroke-width: 0.75;stroke: none;fill: #4682B4;"/>
<circle cx="96.27" cy="104.61" r="2.70" style="stroke-width: 0.75;stroke: none;fill: #4682B4;"/>
<circle cx="102.64" cy="135.46" r="2.70" style="stroke-width: 0.75;stroke: none;fill: #4682B4;"/>
<circle cx="79.66" cy="99.57" r="2.70" style="stroke-width: 0.75;stroke: none;fill: #4682B4;"/>
<circle cx="78.77" cy="96.43" r="2.70" style="stroke-width: 0.75;stroke: none;fill: #4682B4;"/>
<circle cx="94.58" cy="127.42" r="2.70" style="stroke-width: 0.75;stroke: none;fill: #4682B4;"/>
<circle cx="120.84" cy="153.02" r="2.70" style="stroke-width: 0.75;stroke: none;fill: #4682B4;"/>
<circle cx="77.03" cy="72.68" r="2.70" style="stroke-width: 0.75;stroke: none;fill: #4682B4;"/>
<circle cx="80.47" cy="80.49" r="2.70" style="stroke-width: 0.75;stroke: none;fill: #4682B4;"/>
<circle cx="206.63" cy="177.31" r="2.70" style="stroke-width: 0.75;stroke: none;fill: #4682B4;"/>
<circle cx="92.03" cy="117.16" r="2.70" style="stroke-width: 0.75;stroke: none;fill: #4682B4;"/>
<circle cx="82.23" cy="116.52" r="2.70" style="stroke-width: 0.75;stroke: none;fill: #4682B4;"/>
<circle cx="77.55" cy="110.21" r="2.70" style="stroke-width: 0.75;stroke: none;fill: #4682B4;"/>
<circle cx="81.85" cy="87.11" r="2.70" style="stroke-width: 0.75;stroke: none;fill: #4682B4;"/>
<circle cx="76.45" cy="77.17" r="2.70" style="stroke-width: 0.75;stroke: none;fill: #4682B4;"/>
<circle cx="84.78" cy="94.84" r="2.70" style="stroke-width: 0.75;stroke: none;fill: #4682B4;"/>
<circle cx="98.19" cy="118.21" r="2.70" style="stroke-width: 0.75;stroke: none;fill: #4682B4;"/>
<circle cx="77.52" cy="110.08" r="2.70" style="stroke-width: 0.75;stroke: none;fill: #4682B4;"/>
<circle cx="81.13" cy="106.76" r="2.70" style="stroke-width: 0.75;stroke: none;fill: #4682B4;"/>
<circle cx="477.66" cy="222.28" r="2.70" style="stroke-width: 0.75;stroke: none;fill: #4682B4;"/>
<circle cx="77.89" cy="90.13" r="2.70" style="stroke-width: 0.75;stroke: none;fill: #4682B4;"/>
<circle cx="78.24" cy="97.18" r="2.70" style="stroke-width: 0.75;stroke: none;fill: #4682B4;"/>
<circle cx="166.80" cy="171.07" r="2.70" style="stroke-width: 0.75;stroke: none;fill: #4682B4;"/>
<circle cx="79.59" cy="117.14" r="2.70" style="stroke-width: 0.75;stroke: none;fill: #4682B4;"/>
<circle cx="78.97" cy="113.58" r="2.70" style="stroke-width: 0.75;stroke: none;fill: #4682B4;"/>
<circle cx="83.07" cy="135.83" r="2.70" style="stroke-width: 0.75;stroke: none;fill: #4682B4;"/>
</g><g clip-path="url(#c2)">
<line x1="73.55" y1="228.56" x2="424.86" y2="228.56" style="stroke-width: 0.75;"/>
<line x1="73.55" y1="228.56" x2="73.55" y2="235.76" style="stroke-width: 0.75;"/>
<line x1="161.38" y1="228.56" x2="161.38" y2="235.76" style="stroke-width: 0.75;"/>
<line x1="249.20" y1="228.56" x2="249.20" y2="235.76" style="stroke-width: 0.75;"/>
<line x1="337.03" y1="228.56" x2="337.03" y2="235.76" style="stroke-width: 0.75;"/>
<line x1="424.86" y1="228.56" x2="424.86" y2="235.76" style="stroke-width: 0.75;"/>
<g><text x="73.55" y="254.48" text-anchor="middle" style="font-family: Arial;font-size: 12.00px;" textLength="6.67px" lengthAdjust="spacingAndGlyphs">0</text></g>
<g><text x="161.38" y="254.48" text-anchor="middle" style="font-family: Arial;font-size: 12.00px;" textLength="13.35px" lengthAdjust="spacingAndGlyphs">50</text></g>
<g><text x="249.20" y="254.48" text-anchor="middle" style="font-family: Arial;font-size: 12.00px;" textLength="20.02px" lengthAdjust="spacingAndGlyphs">100</text></g>
<g><text x="337.03" y="254.48" text-anchor="middle" style="font-family: Arial;font-size: 12.00px;" textLength="20.02px" lengthAdjust="spacingAndGlyphs">150</text></g>
<g><text x="424.86" y="254.48" text-anchor="middle" style="font-family: Arial;font-size: 12.00px;" textLength="20.02px" lengthAdjust="spacingAndGlyphs">200</text></g>
<line x1="59.04" y1="216.35" x2="59.04" y2="93.31" style="stroke-width: 0.75;"/>
<line x1="59.04" y1="216.35" x2="51.84" y2="216.35" style="stroke-width: 0.75;"/>
<line x1="59.04" y1="175.34" x2="51.84" y2="175.34" style="stroke-width: 0.75;"/>
<line x1="59.04" y1="134.32" x2="51.84" y2="134.32" style="stroke-width: 0.75;"/>
<line x1="59.04" y1="93.31" x2="51.84" y2="93.31" style="stroke-width: 0.75;"/>
<g><text transform="translate(41.76,216.35) rotate(-90.00)" text-anchor="middle" style="font-family: Arial;font-size: 12.00px;" textLength="17.34px" lengthAdjust="spacingAndGlyphs">-10</text></g>
<g><text transform="translate(41.76,175.34) rotate(-90.00)" text-anchor="middle" style="font-family: Arial;font-size: 12.00px;" textLength="10.67px" lengthAdjust="spacingAndGlyphs">-5</text></g>
<g><text transform="translate(41.76,134.32) rotate(-90.00)" text-anchor="middle" style="font-family: Arial;font-size: 12.00px;" textLength="6.67px" lengthAdjust="spacingAndGlyphs">0</text></g>
<g><text transform="translate(41.76,93.31) rotate(-90.00)" text-anchor="middle" style="font-family: Arial;font-size: 12.00px;" textLength="6.67px" lengthAdjust="spacingAndGlyphs">5</text></g>
<polygon points="59.04,228.56 493.76,228.56 493.76,59.04 59.04,59.04" style="stroke-width: 0.75;" />
<g><text x="276.40" y="34.70" text-anchor="middle" style="font-family: Arial;font-size: 14.40px;font-weight: bold;" textLength="55.98px" lengthAdjust="spacingAndGlyphs">Poisson</text></g>
<g><text x="276.40" y="283.28" text-anchor="middle" style="font-family: Arial;font-size: 12.00px;" textLength="80.69px" lengthAdjust="spacingAndGlyphs">Predicted Time</text></g>
<g><text transform="translate(12.96,143.80) rotate(-90.00)" text-anchor="middle" style="font-family: Arial;font-size: 12.00px;" textLength="126.74px" lengthAdjust="spacingAndGlyphs">Standardized Residuals</text></g>
</g><g clip-path="url(#c3)">
<line x1="59.04" y1="134.32" x2="493.76" y2="134.32" style="stroke-width: 0.75;"/>
</g>
</svg>